<mxfile host="app.diagrams.net" agent="Mozilla/5.0 (Windows NT 10.0; Win64; x64) AppleWebKit/537.36 (KHTML, like Gecko) Chrome/128.0.0.0 Safari/537.36 Edg/128.0.0.0" version="24.7.8">
  <diagram id="R2lEEEUBdFMjLlhIrx00" name="Page-1">
    <mxGraphModel dx="2830" dy="2219" grid="1" gridSize="10" guides="1" tooltips="1" connect="1" arrows="1" fold="1" page="1" pageScale="1" pageWidth="850" pageHeight="1100" math="0" shadow="0" extFonts="Permanent Marker^https://fonts.googleapis.com/css?family=Permanent+Marker">
      <root>
        <mxCell id="0" />
        <mxCell id="1" parent="0" />
        <mxCell id="uw9MqV9j3ctJ5L-X95L1-42" value="" style="rounded=0;whiteSpace=wrap;html=1;strokeColor=default;align=center;verticalAlign=middle;fontFamily=Helvetica;fontSize=12;fontColor=default;labelBackgroundColor=default;fillColor=none;" vertex="1" parent="1">
          <mxGeometry x="640" y="32.5" width="450" height="655" as="geometry" />
        </mxCell>
        <mxCell id="uw9MqV9j3ctJ5L-X95L1-22" style="edgeStyle=orthogonalEdgeStyle;shape=connector;curved=1;rounded=0;orthogonalLoop=1;jettySize=auto;html=1;exitX=0.5;exitY=1;exitDx=0;exitDy=0;strokeColor=default;align=center;verticalAlign=middle;fontFamily=Helvetica;fontSize=12;fontColor=default;labelBackgroundColor=default;endArrow=none;endFill=0;" edge="1" parent="1" source="WoftSN4rxRogMyKU2F-f-2" target="WoftSN4rxRogMyKU2F-f-63">
          <mxGeometry relative="1" as="geometry">
            <Array as="points">
              <mxPoint x="800" y="530" />
              <mxPoint x="270" y="530" />
            </Array>
          </mxGeometry>
        </mxCell>
        <mxCell id="uw9MqV9j3ctJ5L-X95L1-24" style="edgeStyle=orthogonalEdgeStyle;shape=connector;curved=1;rounded=0;orthogonalLoop=1;jettySize=auto;html=1;strokeColor=default;align=center;verticalAlign=middle;fontFamily=Helvetica;fontSize=12;fontColor=default;labelBackgroundColor=default;endArrow=none;endFill=0;" edge="1" parent="1" source="WoftSN4rxRogMyKU2F-f-2" target="EX8MTtK2eK-rG8ftwwp5-47">
          <mxGeometry relative="1" as="geometry" />
        </mxCell>
        <mxCell id="uw9MqV9j3ctJ5L-X95L1-25" style="edgeStyle=orthogonalEdgeStyle;shape=connector;curved=1;rounded=0;orthogonalLoop=1;jettySize=auto;html=1;entryX=0.5;entryY=1;entryDx=0;entryDy=0;strokeColor=default;align=center;verticalAlign=middle;fontFamily=Helvetica;fontSize=12;fontColor=default;labelBackgroundColor=default;endArrow=none;endFill=0;" edge="1" parent="1" source="WoftSN4rxRogMyKU2F-f-2" target="EX8MTtK2eK-rG8ftwwp5-44">
          <mxGeometry relative="1" as="geometry" />
        </mxCell>
        <mxCell id="WoftSN4rxRogMyKU2F-f-2" value="PRODUCTO" style="whiteSpace=wrap;html=1;align=center;" parent="1" vertex="1">
          <mxGeometry x="750" y="455" width="100" height="40" as="geometry" />
        </mxCell>
        <mxCell id="WoftSN4rxRogMyKU2F-f-3" value="CONSULTA" style="whiteSpace=wrap;html=1;align=center;" parent="1" vertex="1">
          <mxGeometry x="-40" y="710" width="120" height="40" as="geometry" />
        </mxCell>
        <mxCell id="uw9MqV9j3ctJ5L-X95L1-3" style="edgeStyle=orthogonalEdgeStyle;rounded=0;orthogonalLoop=1;jettySize=auto;html=1;entryX=0.5;entryY=1;entryDx=0;entryDy=0;endArrow=none;endFill=0;curved=1;" edge="1" parent="1" source="WoftSN4rxRogMyKU2F-f-5" target="uw9MqV9j3ctJ5L-X95L1-2">
          <mxGeometry relative="1" as="geometry" />
        </mxCell>
        <mxCell id="WoftSN4rxRogMyKU2F-f-5" value="USUARIO" style="whiteSpace=wrap;html=1;align=center;" parent="1" vertex="1">
          <mxGeometry x="320" y="40" width="120" height="40" as="geometry" />
        </mxCell>
        <mxCell id="WoftSN4rxRogMyKU2F-f-7" value="Genera" style="shape=rhombus;double=1;perimeter=rhombusPerimeter;whiteSpace=wrap;html=1;align=center;" parent="1" vertex="1">
          <mxGeometry x="-20" y="360" width="120" height="60" as="geometry" />
        </mxCell>
        <mxCell id="WoftSN4rxRogMyKU2F-f-17" value="" style="endArrow=none;html=1;rounded=0;exitX=0.5;exitY=0;exitDx=0;exitDy=0;entryX=0.5;entryY=1;entryDx=0;entryDy=0;" parent="1" source="WoftSN4rxRogMyKU2F-f-7" target="WoftSN4rxRogMyKU2F-f-5" edge="1">
          <mxGeometry relative="1" as="geometry">
            <mxPoint x="340" y="310" as="sourcePoint" />
            <mxPoint x="330" y="210" as="targetPoint" />
            <Array as="points">
              <mxPoint x="210" y="290" />
            </Array>
          </mxGeometry>
        </mxCell>
        <mxCell id="WoftSN4rxRogMyKU2F-f-18" value="" style="endArrow=none;html=1;rounded=0;exitX=0.5;exitY=1;exitDx=0;exitDy=0;entryX=0.5;entryY=0;entryDx=0;entryDy=0;" parent="1" source="WoftSN4rxRogMyKU2F-f-7" target="WoftSN4rxRogMyKU2F-f-3" edge="1">
          <mxGeometry relative="1" as="geometry">
            <mxPoint x="340" y="310" as="sourcePoint" />
            <mxPoint x="500" y="310" as="targetPoint" />
          </mxGeometry>
        </mxCell>
        <mxCell id="WoftSN4rxRogMyKU2F-f-28" value="Username" style="ellipse;whiteSpace=wrap;html=1;align=center;" parent="1" vertex="1">
          <mxGeometry x="530" y="40" width="100" height="30" as="geometry" />
        </mxCell>
        <mxCell id="WoftSN4rxRogMyKU2F-f-29" value="&lt;u&gt;CI&lt;/u&gt;" style="ellipse;whiteSpace=wrap;html=1;align=center;" parent="1" vertex="1">
          <mxGeometry x="455" y="10" width="100" height="30" as="geometry" />
        </mxCell>
        <mxCell id="WoftSN4rxRogMyKU2F-f-30" value="Password" style="ellipse;whiteSpace=wrap;html=1;align=center;" parent="1" vertex="1">
          <mxGeometry x="510" y="80" width="100" height="30" as="geometry" />
        </mxCell>
        <mxCell id="WoftSN4rxRogMyKU2F-f-31" value="" style="endArrow=none;html=1;rounded=0;exitX=1;exitY=0.5;exitDx=0;exitDy=0;entryX=0.5;entryY=1;entryDx=0;entryDy=0;" parent="1" source="WoftSN4rxRogMyKU2F-f-5" target="WoftSN4rxRogMyKU2F-f-29" edge="1">
          <mxGeometry relative="1" as="geometry">
            <mxPoint x="340" y="190" as="sourcePoint" />
            <mxPoint x="500" y="190" as="targetPoint" />
          </mxGeometry>
        </mxCell>
        <mxCell id="WoftSN4rxRogMyKU2F-f-33" value="" style="endArrow=none;html=1;rounded=0;exitX=1;exitY=0.5;exitDx=0;exitDy=0;entryX=0;entryY=0.5;entryDx=0;entryDy=0;" parent="1" source="WoftSN4rxRogMyKU2F-f-5" target="WoftSN4rxRogMyKU2F-f-28" edge="1">
          <mxGeometry relative="1" as="geometry">
            <mxPoint x="450" y="70" as="sourcePoint" />
            <mxPoint x="515" y="40" as="targetPoint" />
          </mxGeometry>
        </mxCell>
        <mxCell id="WoftSN4rxRogMyKU2F-f-34" value="" style="endArrow=none;html=1;rounded=0;exitX=1;exitY=0.5;exitDx=0;exitDy=0;entryX=0;entryY=0.5;entryDx=0;entryDy=0;" parent="1" source="WoftSN4rxRogMyKU2F-f-5" target="WoftSN4rxRogMyKU2F-f-30" edge="1">
          <mxGeometry relative="1" as="geometry">
            <mxPoint x="460" y="80" as="sourcePoint" />
            <mxPoint x="525" y="50" as="targetPoint" />
          </mxGeometry>
        </mxCell>
        <mxCell id="WoftSN4rxRogMyKU2F-f-36" value="Email" style="ellipse;whiteSpace=wrap;html=1;align=center;" parent="1" vertex="1">
          <mxGeometry x="140" y="-30" width="100" height="30" as="geometry" />
        </mxCell>
        <mxCell id="WoftSN4rxRogMyKU2F-f-37" value="Teléfono*" style="ellipse;whiteSpace=wrap;html=1;align=center;" parent="1" vertex="1">
          <mxGeometry x="376" y="145" width="100" height="30" as="geometry" />
        </mxCell>
        <mxCell id="WoftSN4rxRogMyKU2F-f-41" value="" style="endArrow=none;html=1;rounded=0;exitX=0;exitY=0;exitDx=0;exitDy=0;entryX=1;entryY=0.5;entryDx=0;entryDy=0;" parent="1" source="WoftSN4rxRogMyKU2F-f-5" target="WoftSN4rxRogMyKU2F-f-36" edge="1">
          <mxGeometry relative="1" as="geometry">
            <mxPoint x="270" y="220" as="sourcePoint" />
            <mxPoint x="500" y="390" as="targetPoint" />
          </mxGeometry>
        </mxCell>
        <mxCell id="klxPp8nYw25qItZHDtjh-5" style="edgeStyle=orthogonalEdgeStyle;rounded=0;orthogonalLoop=1;jettySize=auto;html=1;exitX=0.5;exitY=1;exitDx=0;exitDy=0;" parent="1" source="WoftSN4rxRogMyKU2F-f-3" target="WoftSN4rxRogMyKU2F-f-3" edge="1">
          <mxGeometry relative="1" as="geometry" />
        </mxCell>
        <mxCell id="WoftSN4rxRogMyKU2F-f-56" value="1" style="text;html=1;align=center;verticalAlign=middle;resizable=0;points=[];autosize=1;strokeColor=none;fillColor=none;" parent="1" vertex="1">
          <mxGeometry x="10" y="330" width="30" height="30" as="geometry" />
        </mxCell>
        <mxCell id="WoftSN4rxRogMyKU2F-f-57" value="N" style="text;html=1;align=center;verticalAlign=middle;resizable=0;points=[];autosize=1;strokeColor=none;fillColor=none;" parent="1" vertex="1">
          <mxGeometry x="50" y="415" width="30" height="30" as="geometry" />
        </mxCell>
        <mxCell id="uw9MqV9j3ctJ5L-X95L1-23" style="edgeStyle=orthogonalEdgeStyle;shape=connector;curved=1;rounded=0;orthogonalLoop=1;jettySize=auto;html=1;strokeColor=default;align=center;verticalAlign=middle;fontFamily=Helvetica;fontSize=12;fontColor=default;labelBackgroundColor=default;endArrow=none;endFill=0;" edge="1" parent="1" source="WoftSN4rxRogMyKU2F-f-63" target="WoftSN4rxRogMyKU2F-f-64">
          <mxGeometry relative="1" as="geometry">
            <Array as="points">
              <mxPoint x="260" y="1180" />
            </Array>
          </mxGeometry>
        </mxCell>
        <mxCell id="WoftSN4rxRogMyKU2F-f-63" value="Pertenece" style="shape=rhombus;double=1;perimeter=rhombusPerimeter;whiteSpace=wrap;html=1;align=center;" parent="1" vertex="1">
          <mxGeometry x="210" y="650" width="120" height="60" as="geometry" />
        </mxCell>
        <mxCell id="WoftSN4rxRogMyKU2F-f-64" value="CATEGORÍA" style="whiteSpace=wrap;html=1;align=center;" parent="1" vertex="1">
          <mxGeometry x="810" y="1160" width="120" height="40" as="geometry" />
        </mxCell>
        <mxCell id="uw9MqV9j3ctJ5L-X95L1-34" style="edgeStyle=orthogonalEdgeStyle;shape=connector;curved=1;rounded=0;orthogonalLoop=1;jettySize=auto;html=1;entryX=0;entryY=0.75;entryDx=0;entryDy=0;strokeColor=default;align=center;verticalAlign=middle;fontFamily=Helvetica;fontSize=12;fontColor=default;labelBackgroundColor=default;endArrow=none;endFill=0;" edge="1" parent="1" source="klxPp8nYw25qItZHDtjh-75" target="WoftSN4rxRogMyKU2F-f-2">
          <mxGeometry relative="1" as="geometry" />
        </mxCell>
        <mxCell id="klxPp8nYw25qItZHDtjh-75" value="Talle" style="ellipse;whiteSpace=wrap;html=1;align=center;" parent="1" vertex="1">
          <mxGeometry x="640" y="618" width="120" height="30" as="geometry" />
        </mxCell>
        <mxCell id="WoftSN4rxRogMyKU2F-f-68" value="1" style="text;html=1;align=center;verticalAlign=middle;resizable=0;points=[];autosize=1;strokeColor=none;fillColor=none;" parent="1" vertex="1">
          <mxGeometry x="820" y="1100" width="30" height="30" as="geometry" />
        </mxCell>
        <mxCell id="uw9MqV9j3ctJ5L-X95L1-31" style="edgeStyle=orthogonalEdgeStyle;shape=connector;curved=1;rounded=0;orthogonalLoop=1;jettySize=auto;html=1;strokeColor=default;align=center;verticalAlign=middle;fontFamily=Helvetica;fontSize=12;fontColor=default;labelBackgroundColor=default;endArrow=none;endFill=0;" edge="1" parent="1" source="klxPp8nYw25qItZHDtjh-77" target="WoftSN4rxRogMyKU2F-f-2">
          <mxGeometry relative="1" as="geometry" />
        </mxCell>
        <mxCell id="klxPp8nYw25qItZHDtjh-77" value="&lt;u&gt;Id_Producto&lt;/u&gt;" style="ellipse;whiteSpace=wrap;html=1;align=center;" parent="1" vertex="1">
          <mxGeometry x="660" y="370" width="100" height="30" as="geometry" />
        </mxCell>
        <mxCell id="klxPp8nYw25qItZHDtjh-78" value="Nombre" style="ellipse;whiteSpace=wrap;html=1;align=center;" parent="1" vertex="1">
          <mxGeometry x="820" y="590" width="130" height="30" as="geometry" />
        </mxCell>
        <mxCell id="uw9MqV9j3ctJ5L-X95L1-35" style="edgeStyle=orthogonalEdgeStyle;shape=connector;curved=1;rounded=0;orthogonalLoop=1;jettySize=auto;html=1;strokeColor=default;align=center;verticalAlign=middle;fontFamily=Helvetica;fontSize=12;fontColor=default;labelBackgroundColor=default;endArrow=none;endFill=0;" edge="1" parent="1" source="klxPp8nYw25qItZHDtjh-76" target="WoftSN4rxRogMyKU2F-f-2">
          <mxGeometry relative="1" as="geometry" />
        </mxCell>
        <mxCell id="klxPp8nYw25qItZHDtjh-76" value="Stock" style="ellipse;whiteSpace=wrap;html=1;align=center;" parent="1" vertex="1">
          <mxGeometry x="860" y="390" width="100" height="30" as="geometry" />
        </mxCell>
        <mxCell id="WoftSN4rxRogMyKU2F-f-71" value="Nombre" style="ellipse;whiteSpace=wrap;html=1;align=center;fontStyle=4" parent="1" vertex="1">
          <mxGeometry x="520" y="1270" width="100" height="30" as="geometry" />
        </mxCell>
        <mxCell id="uw9MqV9j3ctJ5L-X95L1-32" style="edgeStyle=orthogonalEdgeStyle;shape=connector;curved=1;rounded=0;orthogonalLoop=1;jettySize=auto;html=1;strokeColor=default;align=center;verticalAlign=middle;fontFamily=Helvetica;fontSize=12;fontColor=default;labelBackgroundColor=default;endArrow=none;endFill=0;" edge="1" parent="1" source="klxPp8nYw25qItZHDtjh-79" target="WoftSN4rxRogMyKU2F-f-2">
          <mxGeometry relative="1" as="geometry" />
        </mxCell>
        <mxCell id="klxPp8nYw25qItZHDtjh-79" value="Precio" style="ellipse;whiteSpace=wrap;html=1;align=center;" parent="1" vertex="1">
          <mxGeometry x="900" y="330" width="120" height="30" as="geometry" />
        </mxCell>
        <mxCell id="WoftSN4rxRogMyKU2F-f-72" value="Descripción" style="ellipse;whiteSpace=wrap;html=1;align=center;" parent="1" vertex="1">
          <mxGeometry x="675" y="1270" width="100" height="30" as="geometry" />
        </mxCell>
        <mxCell id="uw9MqV9j3ctJ5L-X95L1-38" style="edgeStyle=orthogonalEdgeStyle;shape=connector;curved=1;rounded=0;orthogonalLoop=1;jettySize=auto;html=1;strokeColor=default;align=center;verticalAlign=middle;fontFamily=Helvetica;fontSize=12;fontColor=default;labelBackgroundColor=default;endArrow=none;endFill=0;" edge="1" parent="1" source="klxPp8nYw25qItZHDtjh-80" target="WoftSN4rxRogMyKU2F-f-2">
          <mxGeometry relative="1" as="geometry" />
        </mxCell>
        <mxCell id="klxPp8nYw25qItZHDtjh-80" value="Descripcion" style="ellipse;whiteSpace=wrap;html=1;align=center;" parent="1" vertex="1">
          <mxGeometry x="950" y="420" width="120" height="30" as="geometry" />
        </mxCell>
        <mxCell id="WoftSN4rxRogMyKU2F-f-74" value="" style="endArrow=none;html=1;rounded=0;exitX=0;exitY=0.5;exitDx=0;exitDy=0;entryX=1;entryY=0.5;entryDx=0;entryDy=0;" parent="1" source="WoftSN4rxRogMyKU2F-f-64" target="WoftSN4rxRogMyKU2F-f-71" edge="1">
          <mxGeometry relative="1" as="geometry">
            <mxPoint x="700" y="1200" as="sourcePoint" />
            <mxPoint x="610" y="1180" as="targetPoint" />
          </mxGeometry>
        </mxCell>
        <mxCell id="WoftSN4rxRogMyKU2F-f-75" value="" style="endArrow=none;html=1;rounded=0;exitX=0;exitY=0.5;exitDx=0;exitDy=0;entryX=0.5;entryY=0;entryDx=0;entryDy=0;" parent="1" source="WoftSN4rxRogMyKU2F-f-64" target="WoftSN4rxRogMyKU2F-f-72" edge="1">
          <mxGeometry relative="1" as="geometry">
            <mxPoint x="700" y="1200" as="sourcePoint" />
            <mxPoint x="600" y="1235" as="targetPoint" />
          </mxGeometry>
        </mxCell>
        <mxCell id="WoftSN4rxRogMyKU2F-f-77" value="&lt;u&gt;Id_Consulta&lt;/u&gt;" style="ellipse;whiteSpace=wrap;html=1;align=center;" parent="1" vertex="1">
          <mxGeometry x="-180" y="710" width="100" height="30" as="geometry" />
        </mxCell>
        <mxCell id="WoftSN4rxRogMyKU2F-f-81" value="Titulo" style="ellipse;whiteSpace=wrap;html=1;align=center;" parent="1" vertex="1">
          <mxGeometry x="-150" y="790" width="100" height="30" as="geometry" />
        </mxCell>
        <mxCell id="WoftSN4rxRogMyKU2F-f-83" value="" style="endArrow=none;html=1;rounded=0;exitX=1;exitY=0.5;exitDx=0;exitDy=0;entryX=0;entryY=0.5;entryDx=0;entryDy=0;" parent="1" source="WoftSN4rxRogMyKU2F-f-77" target="WoftSN4rxRogMyKU2F-f-3" edge="1">
          <mxGeometry relative="1" as="geometry">
            <mxPoint x="30" y="560" as="sourcePoint" />
            <mxPoint x="30" y="720" as="targetPoint" />
          </mxGeometry>
        </mxCell>
        <mxCell id="WoftSN4rxRogMyKU2F-f-84" value="" style="endArrow=none;html=1;rounded=0;exitX=1;exitY=0;exitDx=0;exitDy=0;entryX=0;entryY=0.5;entryDx=0;entryDy=0;" parent="1" source="WoftSN4rxRogMyKU2F-f-81" target="WoftSN4rxRogMyKU2F-f-3" edge="1">
          <mxGeometry relative="1" as="geometry">
            <mxPoint x="-80" y="775" as="sourcePoint" />
            <mxPoint x="-30" y="740" as="targetPoint" />
          </mxGeometry>
        </mxCell>
        <mxCell id="uw9MqV9j3ctJ5L-X95L1-18" style="edgeStyle=orthogonalEdgeStyle;shape=connector;curved=1;rounded=0;orthogonalLoop=1;jettySize=auto;html=1;strokeColor=default;align=center;verticalAlign=middle;fontFamily=Helvetica;fontSize=12;fontColor=default;labelBackgroundColor=default;endArrow=none;endFill=0;" edge="1" parent="1" source="fdCD4H464rE5ztpKQzD_-13" target="uw9MqV9j3ctJ5L-X95L1-15">
          <mxGeometry relative="1" as="geometry" />
        </mxCell>
        <mxCell id="uw9MqV9j3ctJ5L-X95L1-19" style="edgeStyle=orthogonalEdgeStyle;shape=connector;curved=1;rounded=0;orthogonalLoop=1;jettySize=auto;html=1;entryX=0.5;entryY=0;entryDx=0;entryDy=0;strokeColor=default;align=center;verticalAlign=middle;fontFamily=Helvetica;fontSize=12;fontColor=default;labelBackgroundColor=default;endArrow=none;endFill=0;" edge="1" parent="1" source="fdCD4H464rE5ztpKQzD_-13" target="uw9MqV9j3ctJ5L-X95L1-16">
          <mxGeometry relative="1" as="geometry" />
        </mxCell>
        <mxCell id="uw9MqV9j3ctJ5L-X95L1-21" style="edgeStyle=orthogonalEdgeStyle;shape=connector;curved=1;rounded=0;orthogonalLoop=1;jettySize=auto;html=1;entryX=1;entryY=0.5;entryDx=0;entryDy=0;strokeColor=default;align=center;verticalAlign=middle;fontFamily=Helvetica;fontSize=12;fontColor=default;labelBackgroundColor=default;endArrow=none;endFill=0;" edge="1" parent="1" source="fdCD4H464rE5ztpKQzD_-13" target="EX8MTtK2eK-rG8ftwwp5-47">
          <mxGeometry relative="1" as="geometry" />
        </mxCell>
        <mxCell id="fdCD4H464rE5ztpKQzD_-13" value="OFERTA" style="whiteSpace=wrap;html=1;align=center;" parent="1" vertex="1">
          <mxGeometry x="1460" y="675" width="120" height="40" as="geometry" />
        </mxCell>
        <mxCell id="fdCD4H464rE5ztpKQzD_-14" value="&lt;u&gt;Id_oferta&lt;/u&gt;" style="ellipse;whiteSpace=wrap;html=1;align=center;" parent="1" vertex="1">
          <mxGeometry x="1710" y="650" width="100" height="30" as="geometry" />
        </mxCell>
        <mxCell id="fdCD4H464rE5ztpKQzD_-30" value="&lt;span&gt;Titulo&lt;/span&gt;" style="ellipse;whiteSpace=wrap;html=1;align=center;strokeColor=default;verticalAlign=middle;fontStyle=0" parent="1" vertex="1">
          <mxGeometry x="1690" y="690" width="100" height="30" as="geometry" />
        </mxCell>
        <mxCell id="fdCD4H464rE5ztpKQzD_-31" value="Descripcion" style="ellipse;whiteSpace=wrap;html=1;align=center;fontStyle=0" parent="1" vertex="1">
          <mxGeometry x="1670" y="725" width="100" height="30" as="geometry" />
        </mxCell>
        <mxCell id="fdCD4H464rE5ztpKQzD_-32" value="Porcentaje desc." style="ellipse;whiteSpace=wrap;html=1;align=center;fontStyle=0" parent="1" vertex="1">
          <mxGeometry x="1635" y="770" width="100" height="30" as="geometry" />
        </mxCell>
        <mxCell id="fdCD4H464rE5ztpKQzD_-33" value="" style="endArrow=none;html=1;rounded=0;exitX=1;exitY=0;exitDx=0;exitDy=0;entryX=0;entryY=0.5;entryDx=0;entryDy=0;" parent="1" source="fdCD4H464rE5ztpKQzD_-13" target="fdCD4H464rE5ztpKQzD_-14" edge="1">
          <mxGeometry relative="1" as="geometry">
            <mxPoint x="1190" y="570" as="sourcePoint" />
            <mxPoint x="1350" y="570" as="targetPoint" />
          </mxGeometry>
        </mxCell>
        <mxCell id="fdCD4H464rE5ztpKQzD_-34" value="" style="endArrow=none;html=1;rounded=0;exitX=1;exitY=0.25;exitDx=0;exitDy=0;entryX=0;entryY=0.5;entryDx=0;entryDy=0;" parent="1" source="fdCD4H464rE5ztpKQzD_-13" target="fdCD4H464rE5ztpKQzD_-30" edge="1">
          <mxGeometry relative="1" as="geometry">
            <mxPoint x="1190" y="570" as="sourcePoint" />
            <mxPoint x="1350" y="570" as="targetPoint" />
          </mxGeometry>
        </mxCell>
        <mxCell id="fdCD4H464rE5ztpKQzD_-35" value="" style="endArrow=none;html=1;rounded=0;exitX=1;exitY=0.75;exitDx=0;exitDy=0;entryX=0;entryY=0.5;entryDx=0;entryDy=0;" parent="1" source="fdCD4H464rE5ztpKQzD_-13" target="fdCD4H464rE5ztpKQzD_-31" edge="1">
          <mxGeometry relative="1" as="geometry">
            <mxPoint x="1190" y="570" as="sourcePoint" />
            <mxPoint x="1350" y="570" as="targetPoint" />
          </mxGeometry>
        </mxCell>
        <mxCell id="fdCD4H464rE5ztpKQzD_-36" value="" style="endArrow=none;html=1;rounded=0;exitX=1;exitY=1;exitDx=0;exitDy=0;entryX=0;entryY=0.5;entryDx=0;entryDy=0;" parent="1" source="fdCD4H464rE5ztpKQzD_-13" target="fdCD4H464rE5ztpKQzD_-32" edge="1">
          <mxGeometry relative="1" as="geometry">
            <mxPoint x="1190" y="570" as="sourcePoint" />
            <mxPoint x="1350" y="570" as="targetPoint" />
          </mxGeometry>
        </mxCell>
        <mxCell id="vZyf0hldOOUy-qZebPjc-1" value="Is_Admin" style="ellipse;whiteSpace=wrap;html=1;align=center;" parent="1" vertex="1">
          <mxGeometry x="150" y="90" width="100" height="30" as="geometry" />
        </mxCell>
        <mxCell id="vZyf0hldOOUy-qZebPjc-5" value="" style="endArrow=none;html=1;rounded=0;entryX=0;entryY=1;entryDx=0;entryDy=0;exitX=1;exitY=0.5;exitDx=0;exitDy=0;" parent="1" source="vZyf0hldOOUy-qZebPjc-1" target="WoftSN4rxRogMyKU2F-f-5" edge="1">
          <mxGeometry relative="1" as="geometry">
            <mxPoint x="90" y="250" as="sourcePoint" />
            <mxPoint x="270" y="190" as="targetPoint" />
          </mxGeometry>
        </mxCell>
        <mxCell id="vZyf0hldOOUy-qZebPjc-9" value="Estado_Compra" style="ellipse;whiteSpace=wrap;html=1;align=center;" parent="1" vertex="1">
          <mxGeometry x="890" y="120" width="100" height="40" as="geometry" />
        </mxCell>
        <mxCell id="vZyf0hldOOUy-qZebPjc-10" value="Nro_Rastreo" style="ellipse;whiteSpace=wrap;html=1;align=center;" parent="1" vertex="1">
          <mxGeometry x="890" y="190" width="100" height="40" as="geometry" />
        </mxCell>
        <mxCell id="vZyf0hldOOUy-qZebPjc-12" value="" style="endArrow=none;html=1;rounded=0;entryX=0;entryY=0.5;entryDx=0;entryDy=0;exitX=1;exitY=0.75;exitDx=0;exitDy=0;" parent="1" source="EX8MTtK2eK-rG8ftwwp5-39" target="vZyf0hldOOUy-qZebPjc-9" edge="1">
          <mxGeometry relative="1" as="geometry">
            <mxPoint x="235" y="390" as="sourcePoint" />
            <mxPoint x="160" y="410" as="targetPoint" />
          </mxGeometry>
        </mxCell>
        <mxCell id="vZyf0hldOOUy-qZebPjc-15" value="Is_Pay" style="ellipse;whiteSpace=wrap;html=1;align=center;" parent="1" vertex="1">
          <mxGeometry x="850" y="50" width="100" height="40" as="geometry" />
        </mxCell>
        <mxCell id="vZyf0hldOOUy-qZebPjc-16" value="" style="endArrow=none;html=1;rounded=0;entryX=1;entryY=1;entryDx=0;entryDy=0;" parent="1" source="EX8MTtK2eK-rG8ftwwp5-39" target="vZyf0hldOOUy-qZebPjc-15" edge="1">
          <mxGeometry relative="1" as="geometry">
            <mxPoint x="200" y="380" as="sourcePoint" />
            <mxPoint x="220" y="359" as="targetPoint" />
          </mxGeometry>
        </mxCell>
        <mxCell id="vZyf0hldOOUy-qZebPjc-18" value="" style="endArrow=none;html=1;rounded=0;entryX=0;entryY=0;entryDx=0;entryDy=0;exitX=0.75;exitY=1;exitDx=0;exitDy=0;" parent="1" source="EX8MTtK2eK-rG8ftwwp5-39" target="vZyf0hldOOUy-qZebPjc-10" edge="1">
          <mxGeometry relative="1" as="geometry">
            <mxPoint x="730" y="340" as="sourcePoint" />
            <mxPoint x="800" y="430" as="targetPoint" />
          </mxGeometry>
        </mxCell>
        <mxCell id="mr2r5vWFsDJPIm9r2t9Z-3" value="guarda favorito" style="shape=rhombus;double=1;perimeter=rhombusPerimeter;whiteSpace=wrap;html=1;align=center;" parent="1" vertex="1">
          <mxGeometry x="90" y="480" width="120" height="60" as="geometry" />
        </mxCell>
        <mxCell id="vZyf0hldOOUy-qZebPjc-21" value="" style="endArrow=none;html=1;rounded=0;exitX=0.75;exitY=1;exitDx=0;exitDy=0;entryX=0.5;entryY=0;entryDx=0;entryDy=0;" parent="1" source="WoftSN4rxRogMyKU2F-f-5" target="mr2r5vWFsDJPIm9r2t9Z-3" edge="1">
          <mxGeometry relative="1" as="geometry">
            <mxPoint x="150" y="384" as="sourcePoint" />
            <mxPoint x="730" y="360" as="targetPoint" />
          </mxGeometry>
        </mxCell>
        <mxCell id="mr2r5vWFsDJPIm9r2t9Z-4" value="" style="endArrow=none;html=1;rounded=0;exitX=1;exitY=1;exitDx=0;exitDy=0;" parent="1" source="WoftSN4rxRogMyKU2F-f-5" target="EX8MTtK2eK-rG8ftwwp5-41" edge="1">
          <mxGeometry relative="1" as="geometry">
            <mxPoint x="440" y="80" as="sourcePoint" />
            <mxPoint x="640" y="210" as="targetPoint" />
            <Array as="points" />
          </mxGeometry>
        </mxCell>
        <mxCell id="uw9MqV9j3ctJ5L-X95L1-33" style="edgeStyle=orthogonalEdgeStyle;shape=connector;curved=1;rounded=0;orthogonalLoop=1;jettySize=auto;html=1;strokeColor=default;align=center;verticalAlign=middle;fontFamily=Helvetica;fontSize=12;fontColor=default;labelBackgroundColor=default;endArrow=none;endFill=0;" edge="1" parent="1" source="klxPp8nYw25qItZHDtjh-74" target="WoftSN4rxRogMyKU2F-f-2">
          <mxGeometry relative="1" as="geometry" />
        </mxCell>
        <mxCell id="klxPp8nYw25qItZHDtjh-74" value="Color" style="ellipse;whiteSpace=wrap;html=1;align=center;" parent="1" vertex="1">
          <mxGeometry x="720" y="555" width="100" height="30" as="geometry" />
        </mxCell>
        <mxCell id="mr2r5vWFsDJPIm9r2t9Z-5" value="n" style="text;html=1;align=center;verticalAlign=middle;resizable=0;points=[];autosize=1;strokeColor=none;fillColor=none;" parent="1" vertex="1">
          <mxGeometry x="150" y="460" width="30" height="30" as="geometry" />
        </mxCell>
        <mxCell id="mr2r5vWFsDJPIm9r2t9Z-6" value="n" style="text;html=1;align=center;verticalAlign=middle;resizable=0;points=[];autosize=1;strokeColor=none;fillColor=none;" parent="1" vertex="1">
          <mxGeometry x="150" y="530" width="30" height="30" as="geometry" />
        </mxCell>
        <mxCell id="uw9MqV9j3ctJ5L-X95L1-26" style="edgeStyle=orthogonalEdgeStyle;shape=connector;curved=1;rounded=0;orthogonalLoop=1;jettySize=auto;html=1;entryX=0.5;entryY=0;entryDx=0;entryDy=0;strokeColor=default;align=center;verticalAlign=middle;fontFamily=Helvetica;fontSize=12;fontColor=default;labelBackgroundColor=default;endArrow=none;endFill=0;" edge="1" parent="1" source="EX8MTtK2eK-rG8ftwwp5-39" target="EX8MTtK2eK-rG8ftwwp5-44">
          <mxGeometry relative="1" as="geometry" />
        </mxCell>
        <mxCell id="EX8MTtK2eK-rG8ftwwp5-39" value="compra" style="rounded=1;arcSize=10;whiteSpace=wrap;html=1;align=center;fontFamily=Helvetica;fontSize=11;fontColor=default;labelBackgroundColor=default;" parent="1" vertex="1">
          <mxGeometry x="740" y="145" width="100" height="40" as="geometry" />
        </mxCell>
        <mxCell id="EX8MTtK2eK-rG8ftwwp5-42" style="edgeStyle=orthogonalEdgeStyle;shape=connector;rounded=0;orthogonalLoop=1;jettySize=auto;html=1;strokeColor=default;align=center;verticalAlign=middle;fontFamily=Helvetica;fontSize=11;fontColor=default;labelBackgroundColor=default;endArrow=none;endFill=0;" parent="1" source="EX8MTtK2eK-rG8ftwwp5-41" target="EX8MTtK2eK-rG8ftwwp5-39" edge="1">
          <mxGeometry relative="1" as="geometry" />
        </mxCell>
        <mxCell id="uw9MqV9j3ctJ5L-X95L1-14" style="edgeStyle=orthogonalEdgeStyle;shape=connector;curved=1;rounded=0;orthogonalLoop=1;jettySize=auto;html=1;strokeColor=default;align=center;verticalAlign=middle;fontFamily=Helvetica;fontSize=12;fontColor=default;labelBackgroundColor=default;endArrow=none;endFill=0;" edge="1" parent="1" source="EX8MTtK2eK-rG8ftwwp5-41" target="uw9MqV9j3ctJ5L-X95L1-13">
          <mxGeometry relative="1" as="geometry" />
        </mxCell>
        <mxCell id="EX8MTtK2eK-rG8ftwwp5-41" value="realiza" style="shape=rhombus;perimeter=rhombusPerimeter;whiteSpace=wrap;html=1;align=center;fontFamily=Helvetica;fontSize=11;fontColor=default;labelBackgroundColor=default;" parent="1" vertex="1">
          <mxGeometry x="490" y="145.0000000000001" width="120" height="60" as="geometry" />
        </mxCell>
        <mxCell id="uw9MqV9j3ctJ5L-X95L1-56" value="" style="edgeStyle=orthogonalEdgeStyle;shape=connector;curved=1;rounded=0;orthogonalLoop=1;jettySize=auto;html=1;strokeColor=default;align=center;verticalAlign=middle;fontFamily=Helvetica;fontSize=12;fontColor=default;labelBackgroundColor=default;endArrow=none;endFill=0;" edge="1" parent="1" source="EX8MTtK2eK-rG8ftwwp5-44" target="uw9MqV9j3ctJ5L-X95L1-55">
          <mxGeometry relative="1" as="geometry" />
        </mxCell>
        <mxCell id="EX8MTtK2eK-rG8ftwwp5-44" value="tiene" style="shape=rhombus;perimeter=rhombusPerimeter;whiteSpace=wrap;html=1;align=center;fontFamily=Helvetica;fontSize=11;fontColor=default;labelBackgroundColor=default;" parent="1" vertex="1">
          <mxGeometry x="740" y="290" width="120" height="60" as="geometry" />
        </mxCell>
        <mxCell id="EX8MTtK2eK-rG8ftwwp5-47" value="tiene" style="shape=rhombus;perimeter=rhombusPerimeter;whiteSpace=wrap;html=1;align=center;fontFamily=Helvetica;fontSize=11;fontColor=default;labelBackgroundColor=default;" parent="1" vertex="1">
          <mxGeometry x="1230" y="495" width="120" height="60" as="geometry" />
        </mxCell>
        <mxCell id="EX8MTtK2eK-rG8ftwwp5-54" style="edgeStyle=orthogonalEdgeStyle;shape=connector;rounded=0;orthogonalLoop=1;jettySize=auto;html=1;strokeColor=default;align=center;verticalAlign=middle;fontFamily=Helvetica;fontSize=11;fontColor=default;labelBackgroundColor=default;endArrow=none;endFill=0;" parent="1" source="EX8MTtK2eK-rG8ftwwp5-53" target="WoftSN4rxRogMyKU2F-f-5" edge="1">
          <mxGeometry relative="1" as="geometry" />
        </mxCell>
        <mxCell id="EX8MTtK2eK-rG8ftwwp5-53" value="isverificada" style="ellipse;whiteSpace=wrap;html=1;align=center;fontFamily=Helvetica;fontSize=11;fontColor=default;labelBackgroundColor=default;" parent="1" vertex="1">
          <mxGeometry x="240" y="-70" width="100" height="40" as="geometry" />
        </mxCell>
        <mxCell id="EX8MTtK2eK-rG8ftwwp5-66" style="edgeStyle=orthogonalEdgeStyle;shape=connector;rounded=0;orthogonalLoop=1;jettySize=auto;html=1;strokeColor=default;align=center;verticalAlign=middle;fontFamily=Helvetica;fontSize=11;fontColor=default;labelBackgroundColor=default;endArrow=none;endFill=0;" parent="1" source="EX8MTtK2eK-rG8ftwwp5-55" target="EX8MTtK2eK-rG8ftwwp5-64" edge="1">
          <mxGeometry relative="1" as="geometry">
            <Array as="points">
              <mxPoint x="-540" y="614" />
            </Array>
          </mxGeometry>
        </mxCell>
        <mxCell id="EX8MTtK2eK-rG8ftwwp5-67" style="edgeStyle=orthogonalEdgeStyle;shape=connector;rounded=0;orthogonalLoop=1;jettySize=auto;html=1;entryX=0.5;entryY=0;entryDx=0;entryDy=0;strokeColor=default;align=center;verticalAlign=middle;fontFamily=Helvetica;fontSize=11;fontColor=default;labelBackgroundColor=default;endArrow=none;endFill=0;" parent="1" source="EX8MTtK2eK-rG8ftwwp5-55" target="EX8MTtK2eK-rG8ftwwp5-65" edge="1">
          <mxGeometry relative="1" as="geometry" />
        </mxCell>
        <mxCell id="uw9MqV9j3ctJ5L-X95L1-7" style="edgeStyle=orthogonalEdgeStyle;rounded=0;orthogonalLoop=1;jettySize=auto;html=1;entryX=0.5;entryY=1;entryDx=0;entryDy=0;fontFamily=Helvetica;fontSize=12;fontColor=default;endArrow=none;endFill=0;curved=1;" edge="1" parent="1" source="EX8MTtK2eK-rG8ftwwp5-55" target="uw9MqV9j3ctJ5L-X95L1-6">
          <mxGeometry relative="1" as="geometry" />
        </mxCell>
        <mxCell id="uw9MqV9j3ctJ5L-X95L1-10" value="n" style="edgeLabel;html=1;align=center;verticalAlign=middle;resizable=0;points=[];strokeColor=default;fontFamily=Helvetica;fontSize=12;fontColor=default;labelBackgroundColor=default;fillColor=default;" vertex="1" connectable="0" parent="uw9MqV9j3ctJ5L-X95L1-7">
          <mxGeometry x="-0.8197" y="1" relative="1" as="geometry">
            <mxPoint x="-9" y="-2" as="offset" />
          </mxGeometry>
        </mxCell>
        <mxCell id="EX8MTtK2eK-rG8ftwwp5-55" value="mensajes" style="rounded=1;arcSize=10;whiteSpace=wrap;html=1;align=center;fontFamily=Helvetica;fontSize=11;fontColor=default;labelBackgroundColor=default;" parent="1" vertex="1">
          <mxGeometry x="-510" y="594" width="100" height="40" as="geometry" />
        </mxCell>
        <mxCell id="EX8MTtK2eK-rG8ftwwp5-59" style="edgeStyle=orthogonalEdgeStyle;shape=connector;rounded=0;orthogonalLoop=1;jettySize=auto;html=1;strokeColor=default;align=center;verticalAlign=middle;fontFamily=Helvetica;fontSize=11;fontColor=default;labelBackgroundColor=default;endArrow=none;endFill=0;" parent="1" source="EX8MTtK2eK-rG8ftwwp5-57" target="EX8MTtK2eK-rG8ftwwp5-55" edge="1">
          <mxGeometry relative="1" as="geometry" />
        </mxCell>
        <mxCell id="EX8MTtK2eK-rG8ftwwp5-57" value="tiene" style="shape=rhombus;perimeter=rhombusPerimeter;whiteSpace=wrap;html=1;align=center;fontFamily=Helvetica;fontSize=11;fontColor=default;labelBackgroundColor=default;" parent="1" vertex="1">
          <mxGeometry x="-330" y="620" width="120" height="60" as="geometry" />
        </mxCell>
        <mxCell id="EX8MTtK2eK-rG8ftwwp5-58" style="edgeStyle=orthogonalEdgeStyle;shape=connector;rounded=0;orthogonalLoop=1;jettySize=auto;html=1;entryX=0.9;entryY=0.553;entryDx=0;entryDy=0;entryPerimeter=0;strokeColor=default;align=center;verticalAlign=middle;fontFamily=Helvetica;fontSize=11;fontColor=default;labelBackgroundColor=default;endArrow=none;endFill=0;" parent="1" source="WoftSN4rxRogMyKU2F-f-3" target="EX8MTtK2eK-rG8ftwwp5-57" edge="1">
          <mxGeometry relative="1" as="geometry">
            <Array as="points">
              <mxPoint x="-20" y="650" />
              <mxPoint x="-222" y="650" />
            </Array>
          </mxGeometry>
        </mxCell>
        <mxCell id="EX8MTtK2eK-rG8ftwwp5-60" value="1" style="text;html=1;align=center;verticalAlign=middle;resizable=0;points=[];autosize=1;strokeColor=none;fillColor=none;fontFamily=Helvetica;fontSize=11;fontColor=default;labelBackgroundColor=default;" parent="1" vertex="1">
          <mxGeometry x="-220" y="650" width="30" height="30" as="geometry" />
        </mxCell>
        <mxCell id="EX8MTtK2eK-rG8ftwwp5-61" value="n" style="text;html=1;align=center;verticalAlign=middle;resizable=0;points=[];autosize=1;strokeColor=none;fillColor=none;fontFamily=Helvetica;fontSize=11;fontColor=default;labelBackgroundColor=default;" parent="1" vertex="1">
          <mxGeometry x="-345" y="618" width="30" height="30" as="geometry" />
        </mxCell>
        <mxCell id="EX8MTtK2eK-rG8ftwwp5-64" value="&lt;u&gt;id&lt;/u&gt;" style="ellipse;whiteSpace=wrap;html=1;align=center;" parent="1" vertex="1">
          <mxGeometry x="-590" y="665" width="100" height="30" as="geometry" />
        </mxCell>
        <mxCell id="EX8MTtK2eK-rG8ftwwp5-65" value="Mensaje" style="ellipse;whiteSpace=wrap;html=1;align=center;" parent="1" vertex="1">
          <mxGeometry x="-460" y="715" width="100" height="30" as="geometry" />
        </mxCell>
        <mxCell id="uw9MqV9j3ctJ5L-X95L1-36" style="edgeStyle=orthogonalEdgeStyle;shape=connector;curved=1;rounded=0;orthogonalLoop=1;jettySize=auto;html=1;entryX=1;entryY=0.75;entryDx=0;entryDy=0;strokeColor=default;align=center;verticalAlign=middle;fontFamily=Helvetica;fontSize=12;fontColor=default;labelBackgroundColor=default;endArrow=none;endFill=0;" edge="1" parent="1" source="Ac9iMsHQD0JHHDGR601W-1" target="WoftSN4rxRogMyKU2F-f-2">
          <mxGeometry relative="1" as="geometry" />
        </mxCell>
        <mxCell id="Ac9iMsHQD0JHHDGR601W-1" value="Imagen" style="ellipse;whiteSpace=wrap;html=1;align=center;" parent="1" vertex="1">
          <mxGeometry x="910" y="510" width="130" height="30" as="geometry" />
        </mxCell>
        <mxCell id="uw9MqV9j3ctJ5L-X95L1-2" value="codigoVerificacion" style="ellipse;whiteSpace=wrap;html=1;" vertex="1" parent="1">
          <mxGeometry x="400" y="-110" width="110" height="50" as="geometry" />
        </mxCell>
        <mxCell id="uw9MqV9j3ctJ5L-X95L1-5" value="n" style="text;html=1;align=center;verticalAlign=middle;resizable=0;points=[];autosize=1;strokeColor=none;fillColor=none;fontFamily=Helvetica;fontSize=12;fontColor=default;" vertex="1" parent="1">
          <mxGeometry x="705" y="138" width="30" height="30" as="geometry" />
        </mxCell>
        <mxCell id="uw9MqV9j3ctJ5L-X95L1-8" style="edgeStyle=orthogonalEdgeStyle;shape=connector;curved=1;rounded=0;orthogonalLoop=1;jettySize=auto;html=1;entryX=0;entryY=0.5;entryDx=0;entryDy=0;strokeColor=default;align=center;verticalAlign=middle;fontFamily=Helvetica;fontSize=12;fontColor=default;labelBackgroundColor=default;endArrow=none;endFill=0;" edge="1" parent="1" source="uw9MqV9j3ctJ5L-X95L1-6" target="WoftSN4rxRogMyKU2F-f-5">
          <mxGeometry relative="1" as="geometry">
            <Array as="points">
              <mxPoint x="-510" y="60" />
            </Array>
          </mxGeometry>
        </mxCell>
        <mxCell id="uw9MqV9j3ctJ5L-X95L1-6" value="pertenecen" style="rhombus;whiteSpace=wrap;html=1;strokeColor=default;align=center;verticalAlign=middle;fontFamily=Helvetica;fontSize=12;fontColor=default;fillColor=default;" vertex="1" parent="1">
          <mxGeometry x="-550" y="320" width="80" height="80" as="geometry" />
        </mxCell>
        <mxCell id="uw9MqV9j3ctJ5L-X95L1-9" value="1" style="text;html=1;align=center;verticalAlign=middle;resizable=0;points=[];autosize=1;strokeColor=none;fillColor=none;fontFamily=Helvetica;fontSize=12;fontColor=default;labelBackgroundColor=default;" vertex="1" parent="1">
          <mxGeometry x="285" y="38" width="30" height="30" as="geometry" />
        </mxCell>
        <mxCell id="uw9MqV9j3ctJ5L-X95L1-13" value="Fecha" style="ellipse;whiteSpace=wrap;html=1;strokeColor=default;align=center;verticalAlign=middle;fontFamily=Helvetica;fontSize=12;fontColor=default;labelBackgroundColor=default;fillColor=default;" vertex="1" parent="1">
          <mxGeometry x="430" y="230" width="50" height="40" as="geometry" />
        </mxCell>
        <mxCell id="uw9MqV9j3ctJ5L-X95L1-15" value="fechaInicio" style="ellipse;whiteSpace=wrap;html=1;strokeColor=default;align=center;verticalAlign=middle;fontFamily=Helvetica;fontSize=12;fontColor=default;labelBackgroundColor=default;fillColor=default;" vertex="1" parent="1">
          <mxGeometry x="1360" y="744" width="80" height="40" as="geometry" />
        </mxCell>
        <mxCell id="uw9MqV9j3ctJ5L-X95L1-16" value="fechaFin" style="ellipse;whiteSpace=wrap;html=1;strokeColor=default;align=center;verticalAlign=middle;fontFamily=Helvetica;fontSize=12;fontColor=default;labelBackgroundColor=default;fillColor=default;" vertex="1" parent="1">
          <mxGeometry x="1490" y="780" width="80" height="30" as="geometry" />
        </mxCell>
        <mxCell id="uw9MqV9j3ctJ5L-X95L1-20" value="n" style="text;html=1;align=center;verticalAlign=middle;resizable=0;points=[];autosize=1;strokeColor=none;fillColor=none;fontFamily=Helvetica;fontSize=12;fontColor=default;labelBackgroundColor=default;" vertex="1" parent="1">
          <mxGeometry x="750" y="185" width="30" height="30" as="geometry" />
        </mxCell>
        <mxCell id="uw9MqV9j3ctJ5L-X95L1-27" style="edgeStyle=orthogonalEdgeStyle;shape=connector;curved=1;rounded=0;orthogonalLoop=1;jettySize=auto;html=1;entryX=0.859;entryY=0.454;entryDx=0;entryDy=0;entryPerimeter=0;strokeColor=default;align=center;verticalAlign=middle;fontFamily=Helvetica;fontSize=12;fontColor=default;labelBackgroundColor=default;endArrow=none;endFill=0;" edge="1" parent="1" source="WoftSN4rxRogMyKU2F-f-2" target="mr2r5vWFsDJPIm9r2t9Z-3">
          <mxGeometry relative="1" as="geometry" />
        </mxCell>
        <mxCell id="uw9MqV9j3ctJ5L-X95L1-37" style="edgeStyle=orthogonalEdgeStyle;shape=connector;curved=1;rounded=0;orthogonalLoop=1;jettySize=auto;html=1;entryX=0.843;entryY=0.894;entryDx=0;entryDy=0;entryPerimeter=0;strokeColor=default;align=center;verticalAlign=middle;fontFamily=Helvetica;fontSize=12;fontColor=default;labelBackgroundColor=default;endArrow=none;endFill=0;" edge="1" parent="1" source="klxPp8nYw25qItZHDtjh-78" target="WoftSN4rxRogMyKU2F-f-2">
          <mxGeometry relative="1" as="geometry" />
        </mxCell>
        <mxCell id="uw9MqV9j3ctJ5L-X95L1-40" style="edgeStyle=orthogonalEdgeStyle;shape=connector;curved=1;rounded=0;orthogonalLoop=1;jettySize=auto;html=1;entryX=0.884;entryY=0.916;entryDx=0;entryDy=0;entryPerimeter=0;strokeColor=default;align=center;verticalAlign=middle;fontFamily=Helvetica;fontSize=12;fontColor=default;labelBackgroundColor=default;endArrow=none;endFill=0;" edge="1" parent="1" source="WoftSN4rxRogMyKU2F-f-37" target="WoftSN4rxRogMyKU2F-f-5">
          <mxGeometry relative="1" as="geometry" />
        </mxCell>
        <mxCell id="uw9MqV9j3ctJ5L-X95L1-41" value="n" style="text;html=1;align=center;verticalAlign=middle;resizable=0;points=[];autosize=1;strokeColor=none;fillColor=none;fontFamily=Helvetica;fontSize=12;fontColor=default;labelBackgroundColor=default;" vertex="1" parent="1">
          <mxGeometry x="770" y="380" width="30" height="30" as="geometry" />
        </mxCell>
        <mxCell id="uw9MqV9j3ctJ5L-X95L1-44" style="edgeStyle=orthogonalEdgeStyle;shape=connector;curved=1;rounded=0;orthogonalLoop=1;jettySize=auto;html=1;strokeColor=default;align=center;verticalAlign=middle;fontFamily=Helvetica;fontSize=12;fontColor=default;labelBackgroundColor=default;endArrow=none;endFill=0;" edge="1" parent="1" source="uw9MqV9j3ctJ5L-X95L1-43" target="uw9MqV9j3ctJ5L-X95L1-45">
          <mxGeometry relative="1" as="geometry">
            <mxPoint x="1250" y="250" as="targetPoint" />
          </mxGeometry>
        </mxCell>
        <mxCell id="uw9MqV9j3ctJ5L-X95L1-49" style="edgeStyle=orthogonalEdgeStyle;shape=connector;curved=1;rounded=0;orthogonalLoop=1;jettySize=auto;html=1;strokeColor=default;align=center;verticalAlign=middle;fontFamily=Helvetica;fontSize=12;fontColor=default;labelBackgroundColor=default;endArrow=none;endFill=0;" edge="1" parent="1" source="uw9MqV9j3ctJ5L-X95L1-43" target="uw9MqV9j3ctJ5L-X95L1-48">
          <mxGeometry relative="1" as="geometry" />
        </mxCell>
        <mxCell id="uw9MqV9j3ctJ5L-X95L1-43" value="factura" style="rounded=1;whiteSpace=wrap;html=1;strokeColor=default;align=center;verticalAlign=middle;fontFamily=Helvetica;fontSize=12;fontColor=default;labelBackgroundColor=default;fillColor=default;" vertex="1" parent="1">
          <mxGeometry x="1275" y="120" width="120" height="60" as="geometry" />
        </mxCell>
        <mxCell id="uw9MqV9j3ctJ5L-X95L1-53" value="" style="edgeStyle=orthogonalEdgeStyle;shape=connector;curved=1;rounded=0;orthogonalLoop=1;jettySize=auto;html=1;strokeColor=default;align=center;verticalAlign=middle;fontFamily=Helvetica;fontSize=12;fontColor=default;labelBackgroundColor=default;endArrow=none;endFill=0;" edge="1" parent="1" source="uw9MqV9j3ctJ5L-X95L1-45" target="uw9MqV9j3ctJ5L-X95L1-52">
          <mxGeometry relative="1" as="geometry" />
        </mxCell>
        <mxCell id="uw9MqV9j3ctJ5L-X95L1-45" value="genera" style="rhombus;whiteSpace=wrap;html=1;strokeColor=default;align=center;verticalAlign=middle;fontFamily=Helvetica;fontSize=12;fontColor=default;labelBackgroundColor=default;fillColor=default;" vertex="1" parent="1">
          <mxGeometry x="1160" y="230" width="80" height="80" as="geometry" />
        </mxCell>
        <mxCell id="uw9MqV9j3ctJ5L-X95L1-46" style="edgeStyle=orthogonalEdgeStyle;shape=connector;curved=1;rounded=0;orthogonalLoop=1;jettySize=auto;html=1;entryX=0.991;entryY=0.542;entryDx=0;entryDy=0;entryPerimeter=0;strokeColor=default;align=center;verticalAlign=middle;fontFamily=Helvetica;fontSize=12;fontColor=default;labelBackgroundColor=default;endArrow=none;endFill=0;" edge="1" parent="1" source="uw9MqV9j3ctJ5L-X95L1-45" target="uw9MqV9j3ctJ5L-X95L1-42">
          <mxGeometry relative="1" as="geometry" />
        </mxCell>
        <mxCell id="uw9MqV9j3ctJ5L-X95L1-48" value="id" style="ellipse;whiteSpace=wrap;html=1;strokeColor=default;align=center;verticalAlign=middle;fontFamily=Helvetica;fontSize=12;fontColor=default;labelBackgroundColor=default;fillColor=default;" vertex="1" parent="1">
          <mxGeometry x="1310" y="230" width="80" height="40" as="geometry" />
        </mxCell>
        <mxCell id="uw9MqV9j3ctJ5L-X95L1-52" value="precio" style="ellipse;whiteSpace=wrap;html=1;labelBackgroundColor=default;" vertex="1" parent="1">
          <mxGeometry x="1210" y="330" width="80" height="50" as="geometry" />
        </mxCell>
        <mxCell id="uw9MqV9j3ctJ5L-X95L1-55" value="cantidad" style="ellipse;whiteSpace=wrap;html=1;fontSize=11;labelBackgroundColor=default;" vertex="1" parent="1">
          <mxGeometry x="660" y="220" width="70" height="28" as="geometry" />
        </mxCell>
        <mxCell id="uw9MqV9j3ctJ5L-X95L1-57" value="n" style="text;html=1;align=center;verticalAlign=middle;resizable=0;points=[];autosize=1;strokeColor=none;fillColor=none;fontFamily=Helvetica;fontSize=12;fontColor=default;labelBackgroundColor=default;" vertex="1" parent="1">
          <mxGeometry x="1085" y="378" width="30" height="30" as="geometry" />
        </mxCell>
        <mxCell id="uw9MqV9j3ctJ5L-X95L1-58" value="n" style="text;html=1;align=center;verticalAlign=middle;resizable=0;points=[];autosize=1;strokeColor=none;fillColor=none;fontFamily=Helvetica;fontSize=12;fontColor=default;labelBackgroundColor=default;" vertex="1" parent="1">
          <mxGeometry x="1245" y="148" width="30" height="30" as="geometry" />
        </mxCell>
        <mxCell id="uw9MqV9j3ctJ5L-X95L1-59" value="n" style="text;html=1;align=center;verticalAlign=middle;resizable=0;points=[];autosize=1;strokeColor=none;fillColor=none;fontFamily=Helvetica;fontSize=12;fontColor=default;labelBackgroundColor=default;" vertex="1" parent="1">
          <mxGeometry x="585" y="498" width="30" height="30" as="geometry" />
        </mxCell>
        <mxCell id="uw9MqV9j3ctJ5L-X95L1-60" value="n" style="text;html=1;align=center;verticalAlign=middle;resizable=0;points=[];autosize=1;strokeColor=none;fillColor=none;fontFamily=Helvetica;fontSize=12;fontColor=default;labelBackgroundColor=default;" vertex="1" parent="1">
          <mxGeometry x="1425" y="638" width="30" height="30" as="geometry" />
        </mxCell>
      </root>
    </mxGraphModel>
  </diagram>
</mxfile>
